<?xml version="1.0" encoding="UTF-8" standalone="no"?>
<!DOCTYPE svg PUBLIC "-//W3C//DTD SVG 1.1//EN" "http://www.w3.org/Graphics/SVG/1.1/DTD/svg11.dtd">
<svg width="90px" height="90px" viewBox="0 0 90 90" version="1.1" xmlns="http://www.w3.org/2000/svg" xmlns:xlink="http://www.w3.org/1999/xlink" xml:space="preserve" xmlns:serif="http://www.serif.com/" style="fill-rule:evenodd;clip-rule:evenodd;stroke-linejoin:round;stroke-miterlimit:2;">
    <g transform="matrix(0.8891,0,0,0.8891,4.9905,4.9905)">
        <path d="M10.419,44.998C10.457,22.763 24.169,8.894 46.81,8.894C64.911,8.894 77.581,19.563 79.581,37.281L57.956,37.281C57.099,30.708 53.669,25.659 46.429,25.659C34.997,25.659 32.901,34.709 32.901,44.33C32.901,44.554 32.903,44.777 32.905,44.998C32.903,45.219 32.901,45.442 32.901,45.667C32.901,55.289 34.997,64.339 46.429,64.339C53.669,64.339 57.099,59.29 57.956,52.717L79.581,52.717C77.581,70.436 64.911,81.106 46.81,81.106C24.169,81.106 10.457,67.236 10.419,44.998Z" style="fill:url(#_Linear1);"/>
    </g>
    <defs>
        <linearGradient id="_Linear1" x1="0" y1="0" x2="1" y2="0" gradientUnits="userSpaceOnUse" gradientTransform="matrix(4.42167e-15,-72.2114,72.2114,4.42167e-15,45,81.1057)"><stop offset="0" style="stop-color:rgb(140,180,216);stop-opacity:1"/><stop offset="0.47" style="stop-color:rgb(162,185,207);stop-opacity:1"/><stop offset="1" style="stop-color:rgb(169,186,205);stop-opacity:1"/></linearGradient>
    </defs>
</svg>
