<?xml version="1.0" encoding="UTF-8"?>
<svg xmlns="http://www.w3.org/2000/svg" xmlns:xlink="http://www.w3.org/1999/xlink" width="90px" height="90px" viewBox="0 0 90 90" version="1.1">
<g id="surface1">
<path style=" stroke:none;fill-rule:nonzero;fill:rgb(63.137257%,47.450981%,86.274511%);fill-opacity:1;" d="M 79.761719 28.902344 C 79.761719 27.585938 79.480469 26.425781 78.914062 25.429688 C 78.355469 24.449219 77.519531 23.628906 76.398438 22.980469 C 67.140625 17.640625 57.875 12.320312 48.621094 6.976562 C 46.125 5.539062 43.707031 5.589844 41.230469 7.050781 C 37.546875 9.222656 19.101562 19.792969 13.601562 22.976562 C 11.339844 24.285156 10.238281 26.292969 10.238281 28.898438 C 10.234375 39.632812 10.238281 50.367188 10.234375 61.101562 C 10.234375 62.386719 10.503906 63.523438 11.046875 64.507812 C 11.605469 65.515625 12.453125 66.359375 13.601562 67.023438 C 19.097656 70.207031 37.546875 80.773438 41.230469 82.949219 C 43.707031 84.410156 46.125 84.460938 48.621094 83.023438 C 57.875 77.679688 67.140625 72.359375 76.398438 67.019531 C 77.546875 66.355469 78.394531 65.511719 78.953125 64.503906 C 79.496094 63.523438 79.765625 62.382812 79.765625 61.097656 C 79.765625 61.097656 79.765625 39.636719 79.761719 28.902344 "/>
<path style=" stroke:none;fill-rule:nonzero;fill:rgb(15.686275%,0%,40.784314%);fill-opacity:1;" d="M 45.105469 44.894531 L 11.046875 64.507812 C 11.605469 65.515625 12.453125 66.359375 13.601562 67.023438 C 19.097656 70.207031 37.546875 80.773438 41.230469 82.949219 C 43.707031 84.410156 46.125 84.460938 48.621094 83.023438 C 57.875 77.679688 67.140625 72.359375 76.398438 67.019531 C 77.546875 66.355469 78.394531 65.511719 78.953125 64.503906 L 45.105469 44.894531 "/>
<path style=" stroke:none;fill-rule:nonzero;fill:rgb(22.352941%,0%,56.862748%);fill-opacity:1;" d="M 79.761719 28.902344 C 79.761719 27.585938 79.480469 26.425781 78.914062 25.429688 L 45.105469 44.894531 L 78.953125 64.503906 C 79.496094 63.523438 79.765625 62.382812 79.765625 61.097656 C 79.765625 61.097656 79.765625 39.636719 79.761719 28.902344 "/>
<path style=" stroke:none;fill-rule:nonzero;fill:rgb(100%,100%,100%);fill-opacity:1;" d="M 65.160156 37.5625 L 65.160156 41.230469 L 68.824219 41.230469 L 68.824219 37.5625 L 70.65625 37.5625 L 70.65625 41.230469 L 74.324219 41.230469 L 74.324219 43.0625 L 70.65625 43.0625 L 70.65625 46.726562 L 74.324219 46.726562 L 74.324219 48.5625 L 70.65625 48.5625 L 70.65625 52.226562 L 68.824219 52.226562 L 68.824219 48.5625 L 65.160156 48.5625 L 65.160156 52.226562 L 63.328125 52.226562 L 63.328125 48.5625 L 59.660156 48.5625 L 59.660156 46.726562 L 63.328125 46.726562 L 63.328125 43.0625 L 59.660156 43.0625 L 59.660156 41.230469 L 63.328125 41.230469 L 63.328125 37.5625 Z M 68.824219 43.0625 L 65.160156 43.0625 L 65.160156 46.726562 L 68.824219 46.726562 Z M 68.824219 43.0625 "/>
<path style=" stroke:none;fill-rule:nonzero;fill:rgb(100%,100%,100%);fill-opacity:1;" d="M 45.179688 19.15625 C 54.742188 19.15625 63.089844 24.347656 67.5625 32.066406 L 67.515625 31.992188 L 56.269531 38.46875 C 54.050781 34.714844 49.988281 32.183594 45.328125 32.132812 L 45.179688 32.128906 C 38.074219 32.128906 32.3125 37.890625 32.3125 45 C 32.3125 47.324219 32.929688 49.503906 34.007812 51.386719 C 36.226562 55.257812 40.398438 57.871094 45.179688 57.871094 C 49.996094 57.871094 54.1875 55.222656 56.394531 51.308594 L 56.34375 51.402344 L 67.574219 57.910156 C 63.152344 65.5625 54.917969 70.742188 45.46875 70.84375 L 45.179688 70.84375 C 35.589844 70.84375 27.21875 65.621094 22.757812 57.863281 C 20.582031 54.074219 19.335938 49.683594 19.335938 45 C 19.335938 30.726562 30.90625 19.15625 45.179688 19.15625 Z M 45.179688 19.15625 "/>
</g>
</svg>
