<svg width="90" height="90" xmlns="http://www.w3.org/2000/svg" xml:space="preserve" enable-background="new 0 0 128 128" version="1.1">
 <defs>
  <linearGradient y2="0.12978" x2="0.18915" y1="0.81028" x1="0.76053" id="SVGID_1_">
   <stop stop-color="#A9C8FF" offset="0"/>
   <stop stop-color="#C7E6FF" offset="1"/>
  </linearGradient>
  <linearGradient y2="0.79861" x2="0.75293" y1="0.12247" x1="0.18023" id="SVGID_2_">
   <stop stop-color="#2D4664" offset="0"/>
   <stop stop-color="#29405B" offset="0.1689"/>
   <stop stop-color="#1E2F43" offset="0.4445"/>
   <stop stop-color="#0C131B" offset="0.7902"/>
   <stop stop-color="#000000" offset="1"/>
  </linearGradient>
 </defs>
 <g>
  <title>Layer 1</title>
  <g stroke="null" id="svg_12">
   <g stroke="null" id="svg_1">
    <line stroke="null" id="svg_2" y2="0.02795" x2="0.46854" y1="89.97205" x1="0.46854" fill="none"/>
   </g>
   <line stroke="null" id="svg_3" y2="0.02795" x2="0.46854" y1="89.97205" x1="0.46854" fill="#00FF18" clip-rule="evenodd" fill-rule="evenodd" opacity="0"/>
   <path stroke="null" id="svg_4" d="m6.81592,76.62097c-1.14749,0 -2.14039,-0.44832 -2.79529,-1.26343c-0.66896,-0.83269 -0.89874,-1.97736 -0.62961,-3.14102l12.63855,-54.74715c0.52983,-2.29357 2.75243,-4.09035 5.06217,-4.09035l62.97703,0c1.14819,0 2.14109,0.44832 2.79529,1.26343c0.66896,0.83198 0.89874,1.97736 0.62961,3.14102l-12.63855,54.74715c-0.52912,2.29357 -2.75243,4.09105 -5.06146,4.09105l-62.97773,0l0,-0.0007z" fill="url(#SVGID_1_)" clip-rule="evenodd" fill-rule="evenodd" opacity="0.8"/>
   <g stroke="null" id="svg_5">
    <g stroke="null" id="svg_6">
     <path stroke="null" id="svg_7" d="m83.7371,14.08172l-62.4451,0c-1.94574,0 -3.88587,1.58737 -4.33418,3.54506l-12.53174,54.74644c-0.44761,1.95839 0.76593,3.54506 2.71167,3.54506l62.44439,0c1.94574,0 3.88587,-1.58667 4.33418,-3.54506l12.53174,-54.74715c0.44832,-1.95699 -0.76593,-3.54436 -2.71097,-3.54436z" fill="url(#SVGID_2_)" clip-rule="evenodd" fill-rule="evenodd"/>
    </g>
   </g>
   <path stroke="null" id="svg_8" d="m45.55653,61.55393l15.1872,0c1.76586,0 3.19723,1.49321 3.19723,3.33496c0,1.84175 -1.43138,3.33566 -3.19723,3.33566l-15.1872,0c-1.76586,0 -3.19723,-1.49321 -3.19723,-3.33566c0,-1.84175 1.43138,-3.33496 3.19723,-3.33496z" fill="#2C5591" clip-rule="evenodd" fill-rule="evenodd"/>
   <path stroke="null" id="svg_9" d="m55.40752,46.7251c-0.2614,0.52631 -0.80388,1.10673 -1.76304,1.78061l-28.18693,20.24375c-1.53889,1.11798 -3.74814,0.70339 -4.93357,-0.92685c-1.18544,-1.63024 -0.89944,-3.85776 0.63945,-4.97644l25.41834,-18.40622l0,-0.37805l-15.9707,-16.9896c-1.30278,-1.3857 -1.16717,-3.62657 0.30286,-5.00595c1.47002,-1.37867 3.71722,-1.37305 5.02,0.01265l19.16301,20.38639c1.08776,1.15733 1.16857,2.90983 0.31059,4.2597z" fill="#2C5591" clip-rule="evenodd" fill-rule="evenodd"/>
   <path stroke="null" id="svg_10" d="m54.70483,46.02241c-0.2614,0.52631 -0.80388,1.10673 -1.76304,1.78061l-28.18693,20.24375c-1.53889,1.11798 -3.74814,0.70339 -4.93357,-0.92685c-1.18544,-1.63024 -0.89944,-3.85776 0.63945,-4.97644l25.41834,-18.40622l0,-0.37805l-15.9707,-16.9896c-1.30278,-1.3857 -1.16717,-3.62657 0.30286,-5.00595c1.47002,-1.37867 3.71722,-1.37305 5.02,0.01265l19.16301,20.38639c1.08776,1.15733 1.16857,2.90983 0.31059,4.2597z" fill="#FFFFFF" clip-rule="evenodd" fill-rule="evenodd"/>
   <path stroke="null" id="svg_11" d="m45.12438,61.16183l15.1872,0c1.76586,0 3.19723,1.41592 3.19723,3.1621c0,1.74618 -1.43138,3.1621 -3.19723,3.1621l-15.1872,0c-1.76586,0 -3.19723,-1.41592 -3.19723,-3.1621c0,-1.74618 1.43138,-3.1621 3.19723,-3.1621z" fill="#FFFFFF" clip-rule="evenodd" fill-rule="evenodd"/>
  </g>
 </g>
</svg>