<?xml version="1.0" encoding="UTF-8"?>
<svg xmlns="http://www.w3.org/2000/svg" xmlns:xlink="http://www.w3.org/1999/xlink" width="90px" height="90px" viewBox="0 0 90 90" version="1.1">
<defs>
<filter id="alpha" filterUnits="objectBoundingBox" x="0%" y="0%" width="100%" height="100%">
  <feColorMatrix type="matrix" in="SourceGraphic" values="0 0 0 0 1 0 0 0 0 1 0 0 0 0 1 0 0 0 1 0"/>
</filter>
<mask id="mask0">
  <g filter="url(#alpha)">
<rect x="0" y="0" width="90" height="90" style="fill:rgb(0%,0%,0%);fill-opacity:0.8;stroke:none;"/>
  </g>
</mask>
<linearGradient id="linear0" gradientUnits="userSpaceOnUse" x1="0.76053" y1="0.81028" x2="0.18915" y2="0.12978" gradientTransform="matrix(84.101562,0,0,63.242188,3.390625,13.378906)">
<stop offset="0" style="stop-color:rgb(66.27451%,78.431373%,100%);stop-opacity:1;"/>
<stop offset="1" style="stop-color:rgb(78.039216%,90.196078%,100%);stop-opacity:1;"/>
</linearGradient>
<clipPath id="clip1">
  <rect x="0" y="0" width="90" height="90"/>
</clipPath>
<g id="surface6" clip-path="url(#clip1)">
<path style=" stroke:none;fill-rule:evenodd;fill:url(#linear0);" d="M 6.816406 76.621094 C 5.667969 76.621094 4.675781 76.171875 4.019531 75.359375 C 3.351562 74.523438 3.121094 73.378906 3.390625 72.214844 L 16.03125 17.46875 C 16.558594 15.175781 18.78125 13.378906 21.089844 13.378906 L 84.070312 13.378906 C 85.21875 13.378906 86.210938 13.828125 86.863281 14.640625 C 87.53125 15.472656 87.761719 16.621094 87.492188 17.785156 L 74.855469 72.53125 C 74.324219 74.824219 72.101562 76.621094 69.792969 76.621094 Z M 6.816406 76.621094 "/>
</g>
<linearGradient id="linear1" gradientUnits="userSpaceOnUse" x1="0.18023" y1="0.12247" x2="0.75293" y2="0.79861" gradientTransform="matrix(82.023438,0,0,61.835938,4.425781,14.082031)">
<stop offset="0" style="stop-color:rgb(17.647059%,27.45098%,39.215686%);stop-opacity:1;"/>
<stop offset="0.1689" style="stop-color:rgb(16.078431%,25.098039%,35.686275%);stop-opacity:1;"/>
<stop offset="0.4445" style="stop-color:rgb(11.764706%,18.431373%,26.27451%);stop-opacity:1;"/>
<stop offset="0.7902" style="stop-color:rgb(4.705882%,7.45098%,10.588235%);stop-opacity:1;"/>
<stop offset="1" style="stop-color:rgb(0%,0%,0%);stop-opacity:1;"/>
</linearGradient>
</defs>
<g id="surface1">
<use xlink:href="#surface6" mask="url(#mask0)"/>
<path style=" stroke:none;fill-rule:evenodd;fill:url(#linear1);" d="M 83.738281 14.082031 L 21.292969 14.082031 C 19.347656 14.082031 17.40625 15.667969 16.957031 17.625 L 4.425781 72.375 C 3.976562 74.332031 5.191406 75.917969 7.136719 75.917969 L 69.582031 75.917969 C 71.527344 75.917969 73.46875 74.332031 73.917969 72.375 L 86.449219 17.625 C 86.894531 15.667969 85.683594 14.082031 83.738281 14.082031 Z M 83.738281 14.082031 "/>
<path style=" stroke:none;fill-rule:evenodd;fill:rgb(17.254902%,33.333334%,56.862748%);fill-opacity:1;" d="M 45.554688 61.554688 L 60.742188 61.554688 C 62.507812 61.554688 63.941406 63.046875 63.941406 64.890625 C 63.941406 66.730469 62.507812 68.222656 60.742188 68.222656 L 45.554688 68.222656 C 43.789062 68.222656 42.359375 66.730469 42.359375 64.890625 C 42.359375 63.046875 43.789062 61.554688 45.554688 61.554688 Z M 45.554688 61.554688 "/>
<path style=" stroke:none;fill-rule:evenodd;fill:rgb(17.254902%,33.333334%,56.862748%);fill-opacity:1;" d="M 55.40625 46.726562 C 55.144531 47.25 54.605469 47.832031 53.644531 48.503906 L 25.457031 68.75 C 23.917969 69.867188 21.710938 69.453125 20.523438 67.824219 C 19.339844 66.191406 19.625 63.964844 21.164062 62.847656 L 46.582031 44.441406 L 46.582031 44.0625 L 30.609375 27.074219 C 29.308594 25.6875 29.445312 23.445312 30.914062 22.066406 C 32.382812 20.6875 34.632812 20.691406 35.933594 22.078125 L 55.097656 42.464844 C 56.183594 43.621094 56.265625 45.375 55.40625 46.726562 Z M 55.40625 46.726562 "/>
<path style=" stroke:none;fill-rule:evenodd;fill:rgb(100%,100%,100%);fill-opacity:1;" d="M 54.703125 46.023438 C 54.445312 46.546875 53.902344 47.128906 52.941406 47.804688 L 24.753906 68.046875 C 23.214844 69.164062 21.007812 68.75 19.820312 67.121094 C 18.636719 65.488281 18.921875 63.261719 20.460938 62.144531 L 45.878906 43.738281 L 45.878906 43.359375 L 29.910156 26.371094 C 28.605469 24.984375 28.742188 22.742188 30.210938 21.363281 C 31.679688 19.984375 33.929688 19.992188 35.230469 21.375 L 54.394531 41.761719 C 55.480469 42.921875 55.5625 44.671875 54.703125 46.023438 Z M 54.703125 46.023438 "/>
<path style=" stroke:none;fill-rule:evenodd;fill:rgb(100%,100%,100%);fill-opacity:1;" d="M 45.125 61.160156 L 60.3125 61.160156 C 62.078125 61.160156 63.507812 62.578125 63.507812 64.324219 C 63.507812 66.070312 62.078125 67.484375 60.3125 67.484375 L 45.125 67.484375 C 43.359375 67.484375 41.925781 66.070312 41.925781 64.324219 C 41.925781 62.578125 43.359375 61.160156 45.125 61.160156 Z M 45.125 61.160156 "/>
</g>
</svg>
