<?xml version="1.0" encoding="UTF-8"?>
<svg xmlns="http://www.w3.org/2000/svg" xmlns:xlink="http://www.w3.org/1999/xlink" width="90px" height="90px" viewBox="0 0 90 90" version="1.1">
<defs>
<linearGradient id="linear0" gradientUnits="userSpaceOnUse" x1="0" y1="0" x2="1" y2="0" gradientTransform="matrix(74.745904,77.484598,-80.3241,77.484598,8.077095,7.115311)">
<stop offset="0" style="stop-color:rgb(100%,9.019608%,0%);stop-opacity:1;"/>
<stop offset="1" style="stop-color:rgb(100%,41.568627%,0%);stop-opacity:1;"/>
</linearGradient>
</defs>
<g id="surface1">
<path style=" stroke:none;fill-rule:evenodd;fill:url(#linear0);" d="M 55.359375 7.113281 L 57.226562 13.007812 L 63.601562 15.964844 L 70.136719 14.410156 L 79.3125 28.40625 L 77.910156 31.363281 L 45.449219 42.441406 L 12.984375 31.363281 L 11.589844 28.40625 L 20.765625 14.410156 L 27.296875 15.964844 L 33.675781 13.007812 L 35.542969 7.113281 Z M 45.449219 46.042969 L 75.269531 35.71875 L 76.511719 45.363281 L 74.492188 53.917969 L 59.558594 60.761719 L 45.449219 55.660156 L 31.34375 60.761719 L 16.410156 53.917969 L 14.386719 45.363281 L 15.632812 35.71875 Z M 53.453125 48.667969 C 53.535156 49.019531 53.636719 49.363281 53.757812 49.699219 C 55.3125 53.90625 60 56.066406 64.207031 54.507812 C 68.421875 52.949219 70.578125 48.269531 69.019531 44.054688 C 68.898438 43.722656 68.753906 43.394531 68.585938 43.078125 Z M 37.445312 48.667969 L 22.316406 43.078125 C 22.148438 43.394531 22.003906 43.722656 21.878906 44.054688 C 20.320312 48.269531 22.476562 52.949219 26.6875 54.507812 C 30.902344 56.066406 35.582031 53.90625 37.140625 49.699219 C 37.265625 49.363281 37.367188 49.019531 37.445312 48.667969 Z M 45.449219 59.101562 L 58.039062 63.777344 L 57.539062 79.636719 L 45.449219 84.597656 L 33.359375 79.636719 L 32.859375 63.777344 Z M 61.195312 63.515625 L 77.277344 56.203125 L 79.3125 49.210938 L 82.824219 52.367188 L 77.449219 71.46875 L 60.726562 78.332031 Z M 29.707031 63.515625 L 30.171875 78.332031 L 13.453125 71.46875 L 8.078125 52.367188 L 11.589844 49.210938 L 13.617188 56.203125 Z M 29.707031 63.515625 "/>
</g>
</svg>
