<?xml version="1.0" encoding="UTF-8"?>
<svg xmlns="http://www.w3.org/2000/svg" xmlns:xlink="http://www.w3.org/1999/xlink" width="90px" height="90px" viewBox="0 0 90 90" version="1.1">
<g id="surface1">
<path style=" stroke:none;fill-rule:nonzero;fill:rgb(81.176472%,84.705883%,86.274511%);fill-opacity:1;" d="M 43.28125 21.144531 C 40.21875 16.550781 39.558594 10.414062 39.414062 7.894531 C 31.636719 9.574219 23.910156 12.59375 24.355469 14.8125 C 24.414062 15.09375 24.765625 15.429688 25.351562 15.753906 L 24.433594 17.390625 C 23.316406 16.765625 22.6875 16.042969 22.519531 15.183594 C 22.015625 12.667969 24.863281 10.394531 31.222656 8.226562 C 35.566406 6.75 39.945312 5.863281 40.128906 5.828125 L 41.25 5.605469 L 41.25 6.75 C 41.25 6.828125 41.296875 14.789062 44.84375 20.105469 Z M 43.28125 21.144531 "/>
<path style=" stroke:none;fill-rule:nonzero;fill:rgb(81.176472%,84.705883%,86.274511%);fill-opacity:1;" d="M 46.40625 80.625 L 45.9375 80.625 C 30.578125 80.625 13.484375 75.800781 11.464844 67.726562 C 10.230469 62.796875 14.261719 57.347656 23.113281 51.976562 L 24.089844 53.578125 C 16.125 58.410156 12.285156 63.273438 13.285156 67.273438 C 15.039062 74.28125 31.238281 78.652344 45.445312 78.75 C 47.136719 76.222656 56.210938 61.386719 51.03125 41.484375 L 52.84375 41.015625 C 58.75 63.6875 46.8125 80.082031 46.691406 80.246094 Z M 46.40625 80.625 "/>
<path style=" stroke:none;fill-rule:nonzero;fill:rgb(81.176472%,84.705883%,86.274511%);fill-opacity:1;" d="M 18.621094 73.699219 C 17.609375 73.699219 17.109375 73.589844 17.027344 73.566406 C 16.695312 73.488281 16.4375 73.234375 16.347656 72.90625 C 16.257812 72.582031 16.351562 72.230469 16.589844 71.992188 C 16.726562 71.859375 30.085938 58.476562 31.886719 47.660156 L 33.738281 47.964844 C 32.1875 57.273438 23.019531 67.882812 19.382812 71.792969 C 23.015625 71.582031 32.199219 69.882812 49.820312 60.015625 C 36.066406 58.507812 33.890625 47.5 33.871094 47.382812 L 35.714844 47.042969 C 35.800781 47.503906 38.011719 58.3125 53.046875 58.3125 C 53.050781 58.3125 53.054688 58.3125 53.0625 58.3125 C 53.484375 58.3125 53.855469 58.597656 53.964844 59.007812 C 54.078125 59.414062 53.898438 59.847656 53.53125 60.0625 C 32.464844 72.265625 22.25 73.695312 18.621094 73.699219 Z M 18.621094 73.699219 "/>
<path style=" stroke:none;fill-rule:nonzero;fill:rgb(81.176472%,84.705883%,86.274511%);fill-opacity:1;" d="M 27.234375 78.1875 C 26.84375 78.1875 26.492188 77.949219 26.355469 77.578125 C 26.207031 77.183594 26.34375 76.734375 26.6875 76.488281 C 26.75 76.441406 30.085938 73.976562 33.636719 68.558594 C 32.269531 67.957031 30.890625 67.25 29.519531 66.425781 C 27.851562 65.429688 26.59375 64.355469 25.65625 63.257812 C 20.835938 64.527344 16.390625 65.03125 12.484375 64.699219 L 12.640625 62.832031 C 16.160156 63.128906 20.15625 62.714844 24.492188 61.632812 C 21.542969 56.589844 24.25 51.589844 24.289062 51.519531 L 25.925781 52.433594 C 25.800781 52.664062 23.554688 56.878906 26.394531 61.121094 C 30.519531 59.9375 34.921875 58.183594 39.480469 55.90625 C 40.527344 52.464844 41.347656 48.550781 41.777344 44.136719 C 41.808594 43.835938 41.980469 43.566406 42.242188 43.414062 C 42.503906 43.265625 42.824219 43.25 43.101562 43.375 C 43.160156 43.40625 49.21875 46.171875 53.609375 47.976562 C 53.925781 48.109375 54.148438 48.40625 54.183594 48.75 C 54.222656 49.089844 54.066406 49.425781 53.777344 49.621094 C 49.488281 52.546875 45.222656 55.082031 41.070312 57.199219 C 39.753906 61.371094 38.125 64.84375 36.460938 67.683594 C 43.402344 70.273438 49.425781 70.3125 49.5 70.3125 C 49.929688 70.3125 50.300781 70.601562 50.410156 71.015625 C 50.515625 71.433594 50.332031 71.863281 49.957031 72.074219 C 41.445312 76.800781 27.894531 78.132812 27.324219 78.1875 C 27.292969 78.1875 27.261719 78.1875 27.234375 78.1875 Z M 35.453125 69.3125 C 33.503906 72.339844 31.589844 74.511719 30.15625 75.933594 C 33.902344 75.378906 40.46875 74.171875 45.921875 71.921875 C 43.3125 71.601562 39.53125 70.886719 35.453125 69.3125 Z M 27.6875 62.683594 C 28.425781 63.417969 29.34375 64.136719 30.480469 64.820312 C 31.863281 65.648438 33.261719 66.351562 34.644531 66.949219 C 36.058594 64.578125 37.457031 61.734375 38.660156 58.382812 C 34.871094 60.1875 31.191406 61.628906 27.6875 62.683594 Z M 43.503906 45.617188 C 43.121094 48.933594 42.527344 51.957031 41.792969 54.710938 C 44.90625 53.050781 48.082031 51.15625 51.28125 49.035156 C 48.378906 47.808594 45.1875 46.375 43.503906 45.617188 Z M 43.503906 45.617188 "/>
<path style=" stroke:none;fill-rule:nonzero;fill:rgb(81.176472%,84.705883%,86.274511%);fill-opacity:1;" d="M 33.609375 19.875 C 33.386719 19.875 33.171875 19.796875 33 19.648438 C 29.980469 17.066406 26.425781 11.808594 26.277344 11.585938 C 26.035156 11.226562 26.070312 10.75 26.363281 10.429688 C 26.652344 10.109375 27.128906 10.035156 27.503906 10.238281 C 27.523438 10.246094 29.261719 10.960938 41.035156 12.921875 C 41.375 12.980469 41.652344 13.214844 41.765625 13.539062 C 41.878906 13.859375 41.808594 14.21875 41.578125 14.476562 C 38.28125 18.136719 34.117188 19.75 33.941406 19.816406 C 33.832031 19.855469 33.71875 19.875 33.609375 19.875 Z M 29.339844 12.648438 C 30.519531 14.242188 32.226562 16.390625 33.785156 17.839844 C 34.742188 17.402344 36.890625 16.308594 38.929688 14.46875 C 34.085938 13.640625 31.132812 13.054688 29.339844 12.648438 Z M 29.339844 12.648438 "/>
<path style=" stroke:none;fill-rule:nonzero;fill:rgb(71.764708%,10.980392%,10.980392%);fill-opacity:1;" d="M 40.957031 45.75 C 40.828125 45.75 40.699219 45.722656 40.578125 45.671875 C 40.207031 45.507812 39.980469 45.121094 40.023438 44.714844 C 40.570312 39.5625 32.664062 37.492188 32.582031 37.472656 C 32.253906 37.390625 31.996094 37.136719 31.910156 36.8125 C 31.820312 36.488281 31.914062 36.140625 32.152344 35.902344 C 32.539062 35.515625 41.785156 26.34375 53.390625 21.308594 C 53.714844 21.167969 54.082031 21.21875 54.355469 21.4375 C 54.625 21.660156 54.75 22.015625 54.679688 22.355469 C 52.457031 33.125 42.097656 44.9375 41.660156 45.433594 C 41.476562 45.640625 41.214844 45.75 40.957031 45.75 Z M 34.601562 36.160156 C 36.824219 36.992188 40.710938 38.925781 41.695312 42.453125 C 44.414062 39.0625 50.210938 31.253906 52.378906 23.824219 C 44.152344 27.78125 37.226562 33.75 34.601562 36.160156 Z M 34.601562 36.160156 "/>
<path style=" stroke:none;fill-rule:nonzero;fill:rgb(71.764708%,10.980392%,10.980392%);fill-opacity:1;" d="M 24.523438 53.175781 L 23.632812 51.523438 C 27.164062 49.621094 31.207031 46.121094 34.519531 42.046875 C 31.699219 43.980469 30.085938 45.300781 30.035156 45.34375 L 28.835938 43.902344 C 28.910156 43.839844 32.144531 41.1875 37.519531 37.863281 C 38.996094 35.488281 40.128906 33.046875 40.714844 30.707031 C 40.8125 30.3125 40.898438 29.925781 40.96875 29.554688 C 37.359375 28.265625 34.03125 27.503906 31.742188 27.175781 C 31.394531 27.128906 31.105469 26.890625 30.988281 26.5625 C 30.875 26.234375 30.949219 25.867188 31.183594 25.609375 C 31.34375 25.4375 35.152344 21.359375 39.910156 19.117188 C 40.28125 18.941406 40.722656 19.03125 41 19.332031 C 41.125 19.46875 43.699219 22.359375 43.046875 28.339844 C 45.210938 29.183594 47.441406 30.210938 49.59375 31.429688 C 54.765625 29.105469 60.640625 27.011719 66.894531 25.75 C 67.21875 25.6875 67.578125 25.800781 67.796875 26.0625 C 68.015625 26.328125 68.078125 26.6875 67.953125 27.007812 C 65.515625 33.253906 58.980469 39.929688 58.703125 40.210938 C 58.511719 40.402344 58.253906 40.496094 57.984375 40.488281 C 57.714844 40.472656 57.46875 40.34375 57.300781 40.132812 C 55.199219 37.496094 52.453125 35.308594 49.496094 33.527344 C 45.417969 35.410156 41.804688 37.425781 38.835938 39.246094 C 35.050781 45.15625 29.332031 50.585938 24.523438 53.175781 Z M 51.546875 32.617188 C 53.964844 34.175781 56.21875 36.011719 58.078125 38.144531 C 59.632812 36.460938 63.359375 32.203125 65.472656 27.980469 C 60.503906 29.121094 55.800781 30.777344 51.546875 32.617188 Z M 42.75 30.230469 C 42.6875 30.535156 42.613281 30.847656 42.535156 31.167969 C 42.140625 32.738281 41.515625 34.355469 40.714844 35.96875 C 42.769531 34.792969 45.042969 33.582031 47.496094 32.410156 C 45.925781 31.578125 44.324219 30.851562 42.75 30.230469 Z M 33.839844 25.636719 C 35.921875 26.042969 38.488281 26.710938 41.230469 27.671875 C 41.515625 24.214844 40.582031 22.097656 40.015625 21.160156 C 37.4375 22.507812 35.175781 24.402344 33.839844 25.636719 Z M 33.839844 25.636719 "/>
<path style=" stroke:none;fill-rule:nonzero;fill:rgb(71.764708%,10.980392%,10.980392%);fill-opacity:1;" d="M 33.84375 34.6875 C 33.84375 42.898438 27 49.425781 22.070312 54.1875 C 21.242188 54.992188 18.449219 55.125 18.449219 55.125 C 19.144531 54.414062 19.929688 53.664062 20.773438 52.855469 C 25.460938 48.320312 31.96875 42.113281 31.96875 34.6875 C 31.96875 25.894531 28.425781 22.425781 25.632812 19.648438 C 24.394531 18.394531 23.34375 17.195312 22.707031 15.730469 L 23.289062 15.488281 C 23.925781 15.769531 24.65625 16.085938 25.21875 16.332031 C 25.667969 16.988281 26.269531 17.625 26.960938 18.320312 C 29.832031 21.1875 33.84375 25.125 33.84375 34.6875 Z M 33.84375 34.6875 "/>
<path style=" stroke:none;fill-rule:nonzero;fill:rgb(71.764708%,10.980392%,10.980392%);fill-opacity:1;" d="M 80.503906 37.113281 C 80.503906 37.113281 79.367188 37.273438 79.050781 37.3125 C 62.625 39.132812 45.675781 43.855469 35.980469 47.738281 C 32.476562 49.144531 28.835938 50.851562 25.519531 52.761719 C 25.5 52.78125 25.480469 52.78125 25.445312 52.800781 C 23.492188 53.925781 18.75 56.25 14.90625 58.292969 C 20.53125 52.3125 31.070312 47.699219 35.269531 46.011719 C 44.773438 42.207031 61.105469 37.613281 77.175781 35.644531 C 75.28125 33.429688 70.648438 28.742188 61.539062 25.257812 C 56.210938 23.195312 48.113281 22.03125 40.96875 21 C 29.605469 19.367188 23.136719 18.28125 22.519531 15.1875 C 22.386719 14.570312 22.480469 13.949219 22.761719 13.351562 C 23.382812 14.363281 24.261719 15.074219 24.84375 15.488281 C 25.125 15.675781 25.332031 15.789062 25.40625 15.824219 L 25.425781 15.84375 C 28.085938 17.25 35.269531 18.28125 41.25 19.144531 C 48.488281 20.195312 56.679688 21.375 62.210938 23.492188 C 75.09375 28.460938 79.539062 35.570312 79.726562 35.867188 C 79.894531 36.148438 80.503906 37.113281 80.503906 37.113281 Z M 80.503906 37.113281 "/>
</g>
</svg>
